<svg height="325" width="447" xmlns="http://www.w3.org/2000/svg"><g fill="none" fill-rule="evenodd"><g fill-rule="nonzero"><path d="M56.341 32.674h390.057v246.994H56.341z" fill="#f1f4ff" opacity=".68"/><path d="M446.822 33.463v-14.6c0-3.548-2.353-6.424-5.256-6.424H62.026c-2.903 0-5.258 2.875-5.26 6.423v14.6h390.056z" fill="#6747c7"/><rect fill="#fff" height="10.377" opacity=".42" rx="2.26" width="10.819" x="423.642" y="17.628"/><rect fill="#c4a4f7" height="99.124" opacity=".23" rx="2.291" width="184.053"/><path d="M13.483 11.933h48.791v34.804H13.483zm0 42.026h48.791v34.804H13.483z" fill="#fff"/><rect fill="#faf9fe" height="7.72" rx="1.379" width="44.228" x="74.154" y="53.441"/><rect fill="#faf9fe" height="6.174" rx="1.638" width="91.542" x="73.636" y="71.6"/><rect fill="#faf9fe" height="6.174" rx="1.638" width="91.542" x="73.636" y="80.939"/><rect fill="#faf9fe" height="7.72" rx="1.379" width="44.228" x="73.117" y="12.971"/><rect fill="#faf9fe" height="6.174" rx="1.638" width="91.542" x="72.599" y="31.13"/><rect fill="#faf9fe" height="6.174" rx="1.638" width="91.542" x="72.599" y="40.47"/><rect fill="#fcc2c2" height="10.377" rx="2.26" width="10.819" x="409.205" y="17.628"/><path d="M138.479 141.586s.087 15.45 7.561 25.942c3.98 5.587 15.441 11.873 26.664 15.964 3.884 1.417-3.98 5.986-3.98 5.986s-21.036-1.963-33.031-13.17c-4.776-4.458-11.02-15.837-11.541-24.345-1.879-30.676 14.327-10.377 14.327-10.377z" fill="#8166d1"/><path d="M117.757 305.838s-3.06 7.897-2.02 9.975c1.04 2.077 7.638 2.428 9.371 3.817 1.733 1.39 5.9 4.506 11.454 4.852s4.86-2.078 4.86-2.078-.346-3.817-8.677-7.284c-8.33-3.467-14.988-9.282-14.988-9.282z" fill="#6747c7"/><path d="M79.775 295.98s-5.776 1.416-6.304 2.52c-1.683 3.52 1.683 8.412 1.683 9.329 0 .916.306 6.746 1.529 7.936 1.222 1.19 7.498 2.909 9.793 2.448 1.75-.349 3.06-.305 2.445-1.833s-3.056-2.448-3.362-4.286c-.306-1.837-1.532-10.396-.921-11.317.611-.92-4.863-4.797-4.863-4.797z" fill="#8166d1"/><path d="M126.093 302.698s.21 4.26.524 4.96c1.935 4.276 6.51 7.068 5.974 7.527a75.198 75.198 0 0 1-1.757 1.025c-2.185.173-11.045-4.751-12.82-8.038-.733-1.363-.35-5.133 0-6.158.352-1.024 8.08.684 8.08.684zM87.52 297s-3.02 4.18-3.06 4.868c-.019.345.601 8.64 0 8.64-5.778 0-6.308-11.418-5.408-13.576a14.075 14.075 0 0 1 2.783-4.003c.709-.656 5.685 4.071 5.685 4.071z" fill="#e6aa85"/><path d="M147.673 202.765s-3.845 25.71-9.247 52.073c-3.453 16.846-7.774 31.844-11.359 47.49-.844 3.677-10.335 4.674-10.403 1.987-1.2-47.303 8.403-50.085 2.4-104.543-.323-2.934 28.609 2.993 28.609 2.993z" fill="#423284"/><path d="M136.265 202.444s-2.983 47.068-9.344 58.19c-5.304 9.27-36.58 34.555-38.17 37.335-1.591 2.78-8.386-4.893-7.953-5.56 18.489-28.4 20.974-26.08 27.038-36.542 6.56-11.32-3.778-50.245-.994-53.423 2.783-3.177 29.423 0 29.423 0z" fill="#8166d1"/><path d="M126.49 95.646s-5.726 3.48-7.724 3.48c-2 0-2.4 4.76-2.4 4.76s.4 4.365-1.198 4.365c-1.6 0 .8 7.538.8 7.538l3.341 5.892-1.343 8.789-9.595 18.647s9.448 42.349-13.78 30.16c-13.842-7.264-20.183-15.841-17.447-22.84 1.855-4.748 8.605-9.093 9.594-13.333 2.448-10.494 9.267-12.634 11.9-17.112 2.41-4.096 1.222-10.49 3.39-17.741 2.17-7.251 5.971-8.582 10.517-14.482 2.598-3.372 7.82-3.769 11.817-3.769 3.998 0 8.108.6 10.594 3.77 1.4 1.785 5.724 17.06 2.726 22.02-2.51 4.154-6.598 13.5-6.598 18.065 0 6.942-.002 16.357-3.4 18.54-4.797 3.082 10.407 2.85 11.206 4.041.8 1.19-9.73 1.755-14.528 1.359-4.797-.397-.8-19.787.8-24.945" fill="#fcc2c2"/><path d="M138.358 151.841c-1.15-7.923-1.173-14.82-6.88-18.7-5.708-3.88-19.072-6.076-23.992-3.385-5.459 2.986-7.344 7.774-8.126 10.641-.468 1.718-.49.923-.788 3.73-.794 7.49-.135 12.024-.928 24.761-.83 13.327 1.565 35.55 3.238 45.892 1.048 6.48 49.902 9.223 49.902-9.597s-10.174-21.96-10.174-32.309-1.101-13.11-2.252-21.033z" fill="#6747c7"/><path d="M112.97 106.855c-.117-4.314.465-9.95 4.074-11.144 6.022-1.99 10.908-2.014 13.65 0 1.229.903 2.91 3.686 3.212 5.174 1.204 5.97 1.204 20.22-5.313 22.768-2.297.898-2.332 7.707-2.755 8.145-2.182 2.263-11.405-.124-10.039-2.268 4.288-6.732-1.534-13.025-2.035-15.112a3.564 3.564 0 0 1-1.537-.796 7.71 7.71 0 0 1-2.008-6.369c.301-2.077 1.935-1.058 2.75-.398z" fill="#e6aa85"/></g><rect fill="#fcc2c2" height="60.186" rx="7.258" width="125.492" x="285.209" y="141.643"/><path d="M298.926 200.905l-19.247 9.824 6.836-21.907z" fill="#fcc2c2"/><rect fill="#fff" height="6.745" opacity=".488" rx="2.074" width="92.304" x="302.321" y="185.745"/><rect fill="#fff" height="6.745" opacity=".488" rx="2.074" width="92.304" x="302.321" y="173.812"/><rect fill="#fff" height="6.745" opacity=".488" rx="2.074" width="92.304" x="302.321" y="161.878"/><rect fill="#fff" height="6.745" opacity=".488" rx="2.074" width="92.304" x="302.321" y="149.426"/><path d="M312.713 115.8s-6.65-4.716-9.761-5.216l-3.111-.5s-.944 1.227 3.003 2.51c3.948 1.282-.257 2.472-.257 2.472s-9.268-.507-10.385 1.738c-.5 1.002 1.373 2.49 2.553 3.896s3.475 2.35 9.518 2.423c6.043.072 8.912-2.058 8.912-2.058z" fill="#d1a48b" fill-rule="nonzero"/><path d="M366.983 71.437s-9.795 25.205-31.625 32.917c-21.83 7.713-27.765 10.499-27.765 10.499l1.016 5.211s44.82-.622 60.764-17.582 19.457-24.884 19.457-24.884-8.941-17.497-21.847-6.16z" fill="#8166d1" fill-rule="nonzero"/><path d="M300.554 182.9s-6.71 6.81-7.32 8.86-10.804-1.737-10.804-1.737 7.249-2.85 10.342-8.232c3.094-5.384 7.782 1.11 7.782 1.11z" fill="#e6aa85" fill-rule="nonzero"/><path d="M383.947 147.72s-5.943 7.043-28.15 4.029c-25.548-3.463-15.737-2.932-32.44-2.216-3.23.14-5.203 7.126-6.525 12.375-1.323 5.25-15.705 22.518-18.234 24.01-2.53 1.49-8.433-.258-7.694-2.266 9.105-24.733 13.393-46.93 19.301-49.412 5.908-2.483 34.106-16.741 42.148-16.698 8.042.044 6.918-4.238 6.918-4.238zm-89.197 42.76s-.931 7.71-4.712 8.43c-3.781.719-7.115-1.308-8.205-1.368s-11.061-1.292-11.474-1.546-5.414-3.303-3.136-4.336c2.278-1.032 3.172 1.33 8.303.216a41.61 41.61 0 0 0 9.653-3.546s1.769 1.84 9.571 2.15z" fill="#423284" fill-rule="nonzero"/><path d="M336.27 215.537s-2.43 9.339-1.944 11.414c.486 2.076-10.209 4.151-10.209 4.151s4.862-6.226 4.862-12.452 7.292-3.113 7.292-3.113z" fill="#e6aa85" fill-rule="nonzero"/><path d="M390.72 139.786s-1.653 9.137-22.363 18.16c-23.822 10.376-15.07 5.707-29.17 15.046-2.726 1.805-.971 8.82.487 14.009 1.458 5.188-2.43 27.498-3.89 30.092-1.458 2.594-7.423 4.182-7.778 2.076-4.375-25.942-11.667-47.215-7.778-52.403 3.89-5.189 21.21-32.168 28.197-36.32 6.986-4.15 3.889-7.263 3.889-7.263z" fill="#8166d1" fill-rule="nonzero"/><path d="M334.23 225.571s3.013 7.087.096 9.682c-2.917 2.594-6.806 2.594-7.778 3.113s-10.21 4.67-10.695 4.67c-.487 0-6.32 0-4.862-2.076 1.458-2.075 3.403-.519 7.292-4.15a43.395 43.395 0 0 0 6.597-8.084s2.446.653 9.35-3.155z" fill="#6747c7" fill-rule="nonzero"/><path d="M382.625 34.81c0 5.343 7.68 8.004 8.857 11.14 1.001 2.671-.436 11.897 3.684 16.653 4.12 4.755 7.904 5.02 10.203 10 2.082 4.512-5.474 10.36-4.064 15.327 2.48 8.733-39.579-1.678-37.576-29.459 2.002-27.78-17.345-26.334 0-39.202 14.73-6.935 18.896 10.2 18.896 15.542z" fill="#fcc2c2" fill-rule="nonzero"/><path d="M376.202 36.319s-.5 6.833 1.502 10.573 9.51 12.287 8.51 17.095c-1.002 4.809 2.002 9.083 3.504 11.22 1.501 2.137-2.503 4.274-2.503 4.274s-20.524-38.466-19.023-40.069c1.502-1.603 8.01-3.093 8.01-3.093z" fill="#ffa3a6" fill-rule="nonzero"/><path d="M362.686 23.525c-8.55 4.957-6.74 22.787 0 23.837 4.741.738 4.645 5.543 2.142 11.954-.601 1.544-2.142 4.69-1.042 4.69s16.481-4.952 14.016-8.547c-2.464-3.596-3.763-8.54-3.988-10.452-.17-2.338-.487-5.546.963-7.308 1-1.165 3.025-1.165 2.048-4.676-.534-1.92-3.808-.826-4.029-2.199-.22-1.373-.573-1.91-.913-2.98-1.502-4.807-4.242-8.305-9.197-4.319z" fill="#e6aa85" fill-rule="nonzero"/><path d="M379.052 56.772s25.766 25.942 10.21 90.797c-1.342 5.593-55.636-9.988-47.794-20.94 14.735-20.568 19.648-48.913 21.987-63.835.486-3.009 3.337-.943 7.333-1.872 4.278-.996 8.264-4.15 8.264-4.15z" fill="#6747c7" fill-rule="nonzero"/><path d="M370.12 102.31s2.181 8.024 4.726 5.706c2.545-2.319 11.053-25.456 9.147-26.68-1.906-1.225-13.874 20.975-13.874 20.975zm7.717-47.873c1.458-1.038.73.778 2.917 3.113 2.406 2.594-17.24 5.866-17.24 5.377 0-2.563 1.562-5.756 2.3-6.794 3.13 0 8.829.576 12.023-1.696z" fill="#423284" fill-rule="nonzero"/><path d="M362.82 21.791c-1.327 4.67-.208 7.49 3.359 8.457 5.35 1.45 8.134.502 8.428 1.221.294.72-5.083-9.678-6.959-9.678z" fill="#fcc2c2"/><path d="M289.357 134.38h49.263v3.113h-49.263z" fill="#8166d1"/><path d="M285.392 108.957h35.61l3.574 28.628h-35.79z" fill="#423284"/><path d="M321.715 136.065v-.026s-.566 4.102-1.115 4.543c-.549.44-12.355.664-13.653-.56-1.298-1.223-5.34-3.954-5.34-3.954s-3.704-1.627-1.232-1.766 11.382 2.836 11.865 2.906-.267-1.62-.267-1.62-3.362-.524-4.483-.799c-1.121-.274-1.069-1.642-1.069-1.642l8.302.251z" fill="#e6aa85" fill-rule="nonzero"/><path d="M364.463 76.724c9.584-14.81 21.19 1.319 21.19 1.319s-1.661 9.073-12.951 30.445-52.187 32.476-52.187 32.476l-1.946-5.186s4.896-4.284 23.37-17.408 22.524-41.646 22.524-41.646z" fill="#8166d1" fill-rule="nonzero"/><path d="M268.6 141.546c-28.246-14.291-38.464-38.99-30.655-74.097" stroke="#6741ca" stroke-dasharray="6.221" stroke-width=".518"/><ellipse cx="245.798" cy="59.407" fill="#6741ca" rx="20.224" ry="21.532"/><g fill="#6741ca" stroke="#fff" stroke-width="1.089"><path d="M256.405 53.892a2.89 2.89 0 0 0-5.08-1.888l-5.34 6.193a2.32 2.32 0 0 0-.564 1.515c0 .547.206 1.075.577 1.478l5.316 5.767a2.934 2.934 0 0 0 5.091-1.989z"/><path d="M235.24 54.557a2.914 2.914 0 0 1 5.086-1.94l5.352 5.99c.352.393.547.902.547 1.43 0 .52-.2 1.02-.56 1.395l-5.326 5.58a2.959 2.959 0 0 1-5.099-2.044v-10.41z"/><path d="M239.683 68.546h12.06c2.087 0 3.741-1.36 3.741-2.978 0-.775-.384-1.528-1.081-2.09l-6.62-5.336c-.457-.37-1.085-.58-1.743-.58-.667 0-1.305.204-1.785.566l-7.105 5.36c-1.45 1.094-1.542 2.888-.22 4.072.699.625 1.7.986 2.753.986z"/><path d="M238.925 50.353a3.375 3.375 0 0 0-2.175 5.956l7.421 6.251a2.91 2.91 0 0 0 1.876.685c.678 0 1.332-.25 1.835-.704l7.004-6.305a3.375 3.375 0 0 0-2.258-5.883z"/></g><ellipse cx="393.224" cy="289.532" fill="#fcc2c2" rx="20.224" ry="21.532"/><g fill="#fcc2c2" stroke="#fff" stroke-width="1.089"><path d="M403.44 284.108a2.893 2.893 0 0 0-5.08-1.892l-5.342 6.178a2.306 2.306 0 0 0-.562 1.508c0 .546.206 1.071.576 1.472l5.316 5.753a2.936 2.936 0 0 0 5.092-1.993z"/><path d="M382.302 284.773a2.915 2.915 0 0 1 5.087-1.945l5.352 5.975c.351.392.545.9.545 1.425 0 .517-.2 1.015-.557 1.388l-5.328 5.566a2.96 2.96 0 0 1-5.099-2.047z"/><path d="M386.748 298.738h12.027c2.08 0 3.73-1.36 3.73-2.978 0-.776-.383-1.53-1.078-2.091l-6.602-5.337c-.456-.368-1.081-.579-1.737-.579-.665 0-1.3.204-1.78.566l-7.085 5.36c-1.446 1.094-1.539 2.889-.22 4.073.697.625 1.694.986 2.745.986z"/><path d="M385.998 280.544a3.375 3.375 0 0 0-2.178 5.953l7.406 6.256a2.896 2.896 0 0 0 1.869.684c.675 0 1.326-.25 1.828-.703l6.99-6.31a3.375 3.375 0 0 0-2.262-5.88z"/></g><path d="M238.709 183c3.746 0 6.783 3.252 6.783 7.264v45.658c0 4.011-3.037 7.264-6.783 7.264H126.783c-3.746 0-6.783-3.253-6.783-7.264v-45.658c0-4.012 3.037-7.264 6.783-7.264H238.71z" fill="#beb0e7"/><path d="M232 243.083L244.41 231l6.837 21.907z" fill="#beb0e7"/><path d="M228.36 227c1.074 0 1.944.93 1.944 2.075v2.595c0 1.146-.87 2.075-1.943 2.075h-88.418c-1.073 0-1.943-.93-1.943-2.075v-2.595c0-1.146.87-2.075 1.943-2.075h88.418zm0-12c1.074 0 1.944.93 1.944 2.075v2.595c0 1.146-.87 2.075-1.943 2.075h-88.418c-1.073 0-1.943-.93-1.943-2.075v-2.595c0-1.146.87-2.075 1.943-2.075h88.418zm0-12c1.074 0 1.944.93 1.944 2.075v2.595c0 1.146-.87 2.075-1.943 2.075h-88.418c-1.073 0-1.943-.93-1.943-2.075v-2.595c0-1.146.87-2.075 1.943-2.075h88.418zm0-12c1.074 0 1.944.93 1.944 2.075v2.595c0 1.146-.87 2.075-1.943 2.075h-88.418c-1.073 0-1.943-.93-1.943-2.075v-2.595c0-1.146.87-2.075 1.943-2.075h88.418z" fill="#fff" opacity=".488"/><path d="M116.479 142.586s.087 15.45 7.561 25.942c3.98 5.587 15.441 11.873 26.664 15.964 3.884 1.417-3.98 5.986-3.98 5.986s-21.036-1.963-33.031-13.17c-4.776-4.458-11.02-15.837-11.541-24.345-1.879-30.676 14.327-10.377 14.327-10.377z" fill="#8166d1" fill-rule="nonzero"/><path d="M146.863 184l7.67 1.298c1.852.312 3.704.625 4.321.625s.926 1.25 0 1.25-4.939 0-5.247.62c-.309.622.308 5.313.926 5.938.617.624 1.234 2.5 2.469 3.124 1.235.625 3.087 1.25 2.47 1.563-.618.312-.927 1.25-2.161 1.25-1.235 0-7.717.937-8.334 0-.618-.938-1.98-2.212-2.691-3.137-.713-.926-2.248-7.487-3.166-8.737s3.743-3.794 3.743-3.794z" fill="#e6aa85" fill-rule="nonzero"/><path d="M191 291.266c19.44-19.021 39.987-19.021 61.64 0 32.481 28.532 57.365 0 60.328 0s16.41-27.268 60.01-.793" stroke="#6741ca" stroke-dasharray="6.221" stroke-width=".518"/></g></svg>